<?xml version="1.0" encoding="utf-8" standalone="no"?>
<!DOCTYPE svg PUBLIC "-//W3C//DTD SVG 1.1//EN"
  "http://www.w3.org/Graphics/SVG/1.1/DTD/svg11.dtd">
<svg height="345.6pt" version="1.1" viewBox="0 0 460.8 345.6" width="460.8pt" xmlns="http://www.w3.org/2000/svg" xmlns:xlink="http://www.w3.org/1999/xlink">
 <metadata>
  <rdf:RDF xmlns:cc="http://creativecommons.org/ns#" xmlns:dc="http://purl.org/dc/elements/1.1/" xmlns:rdf="http://www.w3.org/1999/02/22-rdf-syntax-ns#">
   <cc:Work>
    <dc:type rdf:resource="http://purl.org/dc/dcmitype/StillImage"/>
    <dc:date>2022-06-15T16:55:17.719113</dc:date>
    <dc:format>image/svg+xml</dc:format>
    <dc:creator>
     <cc:Agent>
      <dc:title>Matplotlib v3.4.3, https://matplotlib.org/</dc:title>
     </cc:Agent>
    </dc:creator>
   </cc:Work>
  </rdf:RDF>
 </metadata>
 <defs>
  <style type="text/css">*{stroke-linecap:butt;stroke-linejoin:round;}</style>
 </defs>
 <g id="figure_1">
  <g id="patch_1">
   <path d="M 0 345.6 
L 460.8 345.6 
L 460.8 0 
L 0 0 
z
" style="fill:#ffffff;"/>
  </g>
  <g id="axes_1">
   <g id="patch_2">
    <path d="M 44.66 303.64 
L 447.107767 303.64 
L 447.107767 14.76 
L 44.66 14.76 
z
" style="fill:#ffffff;"/>
   </g>
   <g id="matplotlib.axis_1">
    <g id="xtick_1">
     <g id="line2d_1">
      <defs>
       <path d="M 0 0 
L 0 3.5 
" id="m86a225d79f" style="stroke:#000000;stroke-width:0.8;"/>
      </defs>
      <g>
       <use style="stroke:#000000;stroke-width:0.8;" x="95.454378" xlink:href="#m86a225d79f" y="303.64"/>
      </g>
     </g>
     <g id="text_1">
      <!-- 40 -->
      <g transform="translate(89.091878 318.238437)scale(0.1 -0.1)">
       <defs>
        <path d="M 2419 4116 
L 825 1625 
L 2419 1625 
L 2419 4116 
z
M 2253 4666 
L 3047 4666 
L 3047 1625 
L 3713 1625 
L 3713 1100 
L 3047 1100 
L 3047 0 
L 2419 0 
L 2419 1100 
L 313 1100 
L 313 1709 
L 2253 4666 
z
" id="DejaVuSans-34" transform="scale(0.015625)"/>
        <path d="M 2034 4250 
Q 1547 4250 1301 3770 
Q 1056 3291 1056 2328 
Q 1056 1369 1301 889 
Q 1547 409 2034 409 
Q 2525 409 2770 889 
Q 3016 1369 3016 2328 
Q 3016 3291 2770 3770 
Q 2525 4250 2034 4250 
z
M 2034 4750 
Q 2819 4750 3233 4129 
Q 3647 3509 3647 2328 
Q 3647 1150 3233 529 
Q 2819 -91 2034 -91 
Q 1250 -91 836 529 
Q 422 1150 422 2328 
Q 422 3509 836 4129 
Q 1250 4750 2034 4750 
z
" id="DejaVuSans-30" transform="scale(0.015625)"/>
       </defs>
       <use xlink:href="#DejaVuSans-34"/>
       <use x="63.623047" xlink:href="#DejaVuSans-30"/>
      </g>
     </g>
    </g>
    <g id="xtick_2">
     <g id="line2d_2">
      <g>
       <use style="stroke:#000000;stroke-width:0.8;" x="173.599576" xlink:href="#m86a225d79f" y="303.64"/>
      </g>
     </g>
     <g id="text_2">
      <!-- 60 -->
      <g transform="translate(167.237076 318.238437)scale(0.1 -0.1)">
       <defs>
        <path d="M 2113 2584 
Q 1688 2584 1439 2293 
Q 1191 2003 1191 1497 
Q 1191 994 1439 701 
Q 1688 409 2113 409 
Q 2538 409 2786 701 
Q 3034 994 3034 1497 
Q 3034 2003 2786 2293 
Q 2538 2584 2113 2584 
z
M 3366 4563 
L 3366 3988 
Q 3128 4100 2886 4159 
Q 2644 4219 2406 4219 
Q 1781 4219 1451 3797 
Q 1122 3375 1075 2522 
Q 1259 2794 1537 2939 
Q 1816 3084 2150 3084 
Q 2853 3084 3261 2657 
Q 3669 2231 3669 1497 
Q 3669 778 3244 343 
Q 2819 -91 2113 -91 
Q 1303 -91 875 529 
Q 447 1150 447 2328 
Q 447 3434 972 4092 
Q 1497 4750 2381 4750 
Q 2619 4750 2861 4703 
Q 3103 4656 3366 4563 
z
" id="DejaVuSans-36" transform="scale(0.015625)"/>
       </defs>
       <use xlink:href="#DejaVuSans-36"/>
       <use x="63.623047" xlink:href="#DejaVuSans-30"/>
      </g>
     </g>
    </g>
    <g id="xtick_3">
     <g id="line2d_3">
      <g>
       <use style="stroke:#000000;stroke-width:0.8;" x="251.744773" xlink:href="#m86a225d79f" y="303.64"/>
      </g>
     </g>
     <g id="text_3">
      <!-- 80 -->
      <g transform="translate(245.382273 318.238437)scale(0.1 -0.1)">
       <defs>
        <path d="M 2034 2216 
Q 1584 2216 1326 1975 
Q 1069 1734 1069 1313 
Q 1069 891 1326 650 
Q 1584 409 2034 409 
Q 2484 409 2743 651 
Q 3003 894 3003 1313 
Q 3003 1734 2745 1975 
Q 2488 2216 2034 2216 
z
M 1403 2484 
Q 997 2584 770 2862 
Q 544 3141 544 3541 
Q 544 4100 942 4425 
Q 1341 4750 2034 4750 
Q 2731 4750 3128 4425 
Q 3525 4100 3525 3541 
Q 3525 3141 3298 2862 
Q 3072 2584 2669 2484 
Q 3125 2378 3379 2068 
Q 3634 1759 3634 1313 
Q 3634 634 3220 271 
Q 2806 -91 2034 -91 
Q 1263 -91 848 271 
Q 434 634 434 1313 
Q 434 1759 690 2068 
Q 947 2378 1403 2484 
z
M 1172 3481 
Q 1172 3119 1398 2916 
Q 1625 2713 2034 2713 
Q 2441 2713 2670 2916 
Q 2900 3119 2900 3481 
Q 2900 3844 2670 4047 
Q 2441 4250 2034 4250 
Q 1625 4250 1398 4047 
Q 1172 3844 1172 3481 
z
" id="DejaVuSans-38" transform="scale(0.015625)"/>
       </defs>
       <use xlink:href="#DejaVuSans-38"/>
       <use x="63.623047" xlink:href="#DejaVuSans-30"/>
      </g>
     </g>
    </g>
    <g id="xtick_4">
     <g id="line2d_4">
      <g>
       <use style="stroke:#000000;stroke-width:0.8;" x="329.889971" xlink:href="#m86a225d79f" y="303.64"/>
      </g>
     </g>
     <g id="text_4">
      <!-- 100 -->
      <g transform="translate(320.346221 318.238437)scale(0.1 -0.1)">
       <defs>
        <path d="M 794 531 
L 1825 531 
L 1825 4091 
L 703 3866 
L 703 4441 
L 1819 4666 
L 2450 4666 
L 2450 531 
L 3481 531 
L 3481 0 
L 794 0 
L 794 531 
z
" id="DejaVuSans-31" transform="scale(0.015625)"/>
       </defs>
       <use xlink:href="#DejaVuSans-31"/>
       <use x="63.623047" xlink:href="#DejaVuSans-30"/>
       <use x="127.246094" xlink:href="#DejaVuSans-30"/>
      </g>
     </g>
    </g>
    <g id="xtick_5">
     <g id="line2d_5">
      <g>
       <use style="stroke:#000000;stroke-width:0.8;" x="408.035168" xlink:href="#m86a225d79f" y="303.64"/>
      </g>
     </g>
     <g id="text_5">
      <!-- 120 -->
      <g transform="translate(398.491418 318.238437)scale(0.1 -0.1)">
       <defs>
        <path d="M 1228 531 
L 3431 531 
L 3431 0 
L 469 0 
L 469 531 
Q 828 903 1448 1529 
Q 2069 2156 2228 2338 
Q 2531 2678 2651 2914 
Q 2772 3150 2772 3378 
Q 2772 3750 2511 3984 
Q 2250 4219 1831 4219 
Q 1534 4219 1204 4116 
Q 875 4013 500 3803 
L 500 4441 
Q 881 4594 1212 4672 
Q 1544 4750 1819 4750 
Q 2544 4750 2975 4387 
Q 3406 4025 3406 3419 
Q 3406 3131 3298 2873 
Q 3191 2616 2906 2266 
Q 2828 2175 2409 1742 
Q 1991 1309 1228 531 
z
" id="DejaVuSans-32" transform="scale(0.015625)"/>
       </defs>
       <use xlink:href="#DejaVuSans-31"/>
       <use x="63.623047" xlink:href="#DejaVuSans-32"/>
       <use x="127.246094" xlink:href="#DejaVuSans-30"/>
      </g>
     </g>
    </g>
    <g id="text_6">
     <!-- FPS -->
     <g transform="translate(236.81904 331.916562)scale(0.1 -0.1)">
      <defs>
       <path d="M 628 4666 
L 3309 4666 
L 3309 4134 
L 1259 4134 
L 1259 2759 
L 3109 2759 
L 3109 2228 
L 1259 2228 
L 1259 0 
L 628 0 
L 628 4666 
z
" id="DejaVuSans-46" transform="scale(0.015625)"/>
       <path d="M 1259 4147 
L 1259 2394 
L 2053 2394 
Q 2494 2394 2734 2622 
Q 2975 2850 2975 3272 
Q 2975 3691 2734 3919 
Q 2494 4147 2053 4147 
L 1259 4147 
z
M 628 4666 
L 2053 4666 
Q 2838 4666 3239 4311 
Q 3641 3956 3641 3272 
Q 3641 2581 3239 2228 
Q 2838 1875 2053 1875 
L 1259 1875 
L 1259 0 
L 628 0 
L 628 4666 
z
" id="DejaVuSans-50" transform="scale(0.015625)"/>
       <path d="M 3425 4513 
L 3425 3897 
Q 3066 4069 2747 4153 
Q 2428 4238 2131 4238 
Q 1616 4238 1336 4038 
Q 1056 3838 1056 3469 
Q 1056 3159 1242 3001 
Q 1428 2844 1947 2747 
L 2328 2669 
Q 3034 2534 3370 2195 
Q 3706 1856 3706 1288 
Q 3706 609 3251 259 
Q 2797 -91 1919 -91 
Q 1588 -91 1214 -16 
Q 841 59 441 206 
L 441 856 
Q 825 641 1194 531 
Q 1563 422 1919 422 
Q 2459 422 2753 634 
Q 3047 847 3047 1241 
Q 3047 1584 2836 1778 
Q 2625 1972 2144 2069 
L 1759 2144 
Q 1053 2284 737 2584 
Q 422 2884 422 3419 
Q 422 4038 858 4394 
Q 1294 4750 2059 4750 
Q 2388 4750 2728 4690 
Q 3069 4631 3425 4513 
z
" id="DejaVuSans-53" transform="scale(0.015625)"/>
      </defs>
      <use xlink:href="#DejaVuSans-46"/>
      <use x="57.519531" xlink:href="#DejaVuSans-50"/>
      <use x="117.822266" xlink:href="#DejaVuSans-53"/>
     </g>
    </g>
   </g>
   <g id="matplotlib.axis_2">
    <g id="ytick_1">
     <g id="line2d_6">
      <defs>
       <path d="M 0 0 
L -3.5 0 
" id="mbcd00b8683" style="stroke:#000000;stroke-width:0.8;"/>
      </defs>
      <g>
       <use style="stroke:#000000;stroke-width:0.8;" x="44.66" xlink:href="#mbcd00b8683" y="289.622036"/>
      </g>
     </g>
     <g id="text_7">
      <!-- 40 -->
      <g transform="translate(24.935 293.421255)scale(0.1 -0.1)">
       <use xlink:href="#DejaVuSans-34"/>
       <use x="63.623047" xlink:href="#DejaVuSans-30"/>
      </g>
     </g>
    </g>
    <g id="ytick_2">
     <g id="line2d_7">
      <g>
       <use style="stroke:#000000;stroke-width:0.8;" x="44.66" xlink:href="#mbcd00b8683" y="234.649629"/>
      </g>
     </g>
     <g id="text_8">
      <!-- 42 -->
      <g transform="translate(24.935 238.448848)scale(0.1 -0.1)">
       <use xlink:href="#DejaVuSans-34"/>
       <use x="63.623047" xlink:href="#DejaVuSans-32"/>
      </g>
     </g>
    </g>
    <g id="ytick_3">
     <g id="line2d_8">
      <g>
       <use style="stroke:#000000;stroke-width:0.8;" x="44.66" xlink:href="#mbcd00b8683" y="179.677222"/>
      </g>
     </g>
     <g id="text_9">
      <!-- 44 -->
      <g transform="translate(24.935 183.47644)scale(0.1 -0.1)">
       <use xlink:href="#DejaVuSans-34"/>
       <use x="63.623047" xlink:href="#DejaVuSans-34"/>
      </g>
     </g>
    </g>
    <g id="ytick_4">
     <g id="line2d_9">
      <g>
       <use style="stroke:#000000;stroke-width:0.8;" x="44.66" xlink:href="#mbcd00b8683" y="124.704814"/>
      </g>
     </g>
     <g id="text_10">
      <!-- 46 -->
      <g transform="translate(24.935 128.504033)scale(0.1 -0.1)">
       <use xlink:href="#DejaVuSans-34"/>
       <use x="63.623047" xlink:href="#DejaVuSans-36"/>
      </g>
     </g>
    </g>
    <g id="ytick_5">
     <g id="line2d_10">
      <g>
       <use style="stroke:#000000;stroke-width:0.8;" x="44.66" xlink:href="#mbcd00b8683" y="69.732407"/>
      </g>
     </g>
     <g id="text_11">
      <!-- 48 -->
      <g transform="translate(24.935 73.531626)scale(0.1 -0.1)">
       <use xlink:href="#DejaVuSans-34"/>
       <use x="63.623047" xlink:href="#DejaVuSans-38"/>
      </g>
     </g>
    </g>
    <g id="ytick_6">
     <g id="line2d_11">
      <g>
       <use style="stroke:#000000;stroke-width:0.8;" x="44.66" xlink:href="#mbcd00b8683" y="14.76"/>
      </g>
     </g>
     <g id="text_12">
      <!-- 50 -->
      <g transform="translate(24.935 18.559219)scale(0.1 -0.1)">
       <defs>
        <path d="M 691 4666 
L 3169 4666 
L 3169 4134 
L 1269 4134 
L 1269 2991 
Q 1406 3038 1543 3061 
Q 1681 3084 1819 3084 
Q 2600 3084 3056 2656 
Q 3513 2228 3513 1497 
Q 3513 744 3044 326 
Q 2575 -91 1722 -91 
Q 1428 -91 1123 -41 
Q 819 9 494 109 
L 494 744 
Q 775 591 1075 516 
Q 1375 441 1709 441 
Q 2250 441 2565 725 
Q 2881 1009 2881 1497 
Q 2881 1984 2565 2268 
Q 2250 2553 1709 2553 
Q 1456 2553 1204 2497 
Q 953 2441 691 2322 
L 691 4666 
z
" id="DejaVuSans-35" transform="scale(0.015625)"/>
       </defs>
       <use xlink:href="#DejaVuSans-35"/>
       <use x="63.623047" xlink:href="#DejaVuSans-30"/>
      </g>
     </g>
    </g>
    <g id="text_13">
     <!-- AP -->
     <g transform="translate(18.855313 165.635156)rotate(-90)scale(0.1 -0.1)">
      <defs>
       <path d="M 2188 4044 
L 1331 1722 
L 3047 1722 
L 2188 4044 
z
M 1831 4666 
L 2547 4666 
L 4325 0 
L 3669 0 
L 3244 1197 
L 1141 1197 
L 716 0 
L 50 0 
L 1831 4666 
z
" id="DejaVuSans-41" transform="scale(0.015625)"/>
      </defs>
      <use xlink:href="#DejaVuSans-41"/>
      <use x="68.408203" xlink:href="#DejaVuSans-50"/>
     </g>
    </g>
   </g>
   <g id="line2d_12">
    <path clip-path="url(#p128761d462)" d="M 126.712457 99.967231 
L 75.918079 83.475509 
" style="fill:none;stroke:#1f77b4;stroke-linecap:square;stroke-width:1.5;"/>
    <defs>
     <path d="M 0 3 
C 0.795609 3 1.55874 2.683901 2.12132 2.12132 
C 2.683901 1.55874 3 0.795609 3 0 
C 3 -0.795609 2.683901 -1.55874 2.12132 -2.12132 
C 1.55874 -2.683901 0.795609 -3 0 -3 
C -0.795609 -3 -1.55874 -2.683901 -2.12132 -2.12132 
C -2.683901 -1.55874 -3 -0.795609 -3 0 
C -3 0.795609 -2.683901 1.55874 -2.12132 2.12132 
C -1.55874 2.683901 -0.795609 3 0 3 
z
" id="m0d1f8cb6c5" style="stroke:#1f77b4;"/>
    </defs>
    <g clip-path="url(#p128761d462)">
     <use style="fill:#1f77b4;stroke:#1f77b4;" x="126.712457" xlink:href="#m0d1f8cb6c5" y="99.967231"/>
     <use style="fill:#1f77b4;stroke:#1f77b4;" x="75.918079" xlink:href="#m0d1f8cb6c5" y="83.475509"/>
    </g>
   </g>
   <g id="line2d_13">
    <path clip-path="url(#p128761d462)" d="M 325.982711 262.135833 
L 259.559293 209.912046 
" style="fill:none;stroke:#ff7f0e;stroke-linecap:square;stroke-width:1.5;"/>
    <defs>
     <path d="M 0 3 
C 0.795609 3 1.55874 2.683901 2.12132 2.12132 
C 2.683901 1.55874 3 0.795609 3 0 
C 3 -0.795609 2.683901 -1.55874 2.12132 -2.12132 
C 1.55874 -2.683901 0.795609 -3 0 -3 
C -0.795609 -3 -1.55874 -2.683901 -2.12132 -2.12132 
C -2.683901 -1.55874 -3 -0.795609 -3 0 
C -3 0.795609 -2.683901 1.55874 -2.12132 2.12132 
C -1.55874 2.683901 -0.795609 3 0 3 
z
" id="m6334b3f965" style="stroke:#ff7f0e;"/>
    </defs>
    <g clip-path="url(#p128761d462)">
     <use style="fill:#ff7f0e;stroke:#ff7f0e;" x="325.982711" xlink:href="#m6334b3f965" y="262.135833"/>
     <use style="fill:#ff7f0e;stroke:#ff7f0e;" x="259.559293" xlink:href="#m6334b3f965" y="209.912046"/>
    </g>
   </g>
   <g id="line2d_14">
    <path clip-path="url(#p128761d462)" d="M 263.466553 292.370657 
L 197.043135 163.1855 
L 177.506836 121.956194 
L 165.785056 77.978268 
L 118.897938 66.983787 
" style="fill:none;stroke:#2ca02c;stroke-linecap:square;stroke-width:1.5;"/>
    <defs>
     <path d="M 0 3 
C 0.795609 3 1.55874 2.683901 2.12132 2.12132 
C 2.683901 1.55874 3 0.795609 3 0 
C 3 -0.795609 2.683901 -1.55874 2.12132 -2.12132 
C 1.55874 -2.683901 0.795609 -3 0 -3 
C -0.795609 -3 -1.55874 -2.683901 -2.12132 -2.12132 
C -2.683901 -1.55874 -3 -0.795609 -3 0 
C -3 0.795609 -2.683901 1.55874 -2.12132 2.12132 
C -1.55874 2.683901 -0.795609 3 0 3 
z
" id="m6da2af3728" style="stroke:#2ca02c;"/>
    </defs>
    <g clip-path="url(#p128761d462)">
     <use style="fill:#2ca02c;stroke:#2ca02c;" x="263.466553" xlink:href="#m6da2af3728" y="292.370657"/>
     <use style="fill:#2ca02c;stroke:#2ca02c;" x="197.043135" xlink:href="#m6da2af3728" y="163.1855"/>
     <use style="fill:#2ca02c;stroke:#2ca02c;" x="177.506836" xlink:href="#m6da2af3728" y="121.956194"/>
     <use style="fill:#2ca02c;stroke:#2ca02c;" x="165.785056" xlink:href="#m6da2af3728" y="77.978268"/>
     <use style="fill:#2ca02c;stroke:#2ca02c;" x="118.897938" xlink:href="#m6da2af3728" y="66.983787"/>
    </g>
   </g>
   <g id="line2d_15">
    <path clip-path="url(#p128761d462)" d="M 408.035168 264.884453 
L 271.281073 207.163425 
" style="fill:none;stroke:#d62728;stroke-linecap:square;stroke-width:1.5;"/>
    <defs>
     <path d="M 0 3 
C 0.795609 3 1.55874 2.683901 2.12132 2.12132 
C 2.683901 1.55874 3 0.795609 3 0 
C 3 -0.795609 2.683901 -1.55874 2.12132 -2.12132 
C 1.55874 -2.683901 0.795609 -3 0 -3 
C -0.795609 -3 -1.55874 -2.683901 -2.12132 -2.12132 
C -2.683901 -1.55874 -3 -0.795609 -3 0 
C -3 0.795609 -2.683901 1.55874 -2.12132 2.12132 
C -1.55874 2.683901 -0.795609 3 0 3 
z
" id="m7c3304153c" style="stroke:#d62728;"/>
    </defs>
    <g clip-path="url(#p128761d462)">
     <use style="fill:#d62728;stroke:#d62728;" x="408.035168" xlink:href="#m7c3304153c" y="264.884453"/>
     <use style="fill:#d62728;stroke:#d62728;" x="271.281073" xlink:href="#m7c3304153c" y="207.163425"/>
    </g>
   </g>
   <g id="patch_3">
    <path d="M 44.66 303.64 
L 44.66 14.76 
" style="fill:none;stroke:#000000;stroke-linecap:square;stroke-linejoin:miter;stroke-width:0.8;"/>
   </g>
   <g id="patch_4">
    <path d="M 447.107767 303.64 
L 447.107767 14.76 
" style="fill:none;stroke:#000000;stroke-linecap:square;stroke-linejoin:miter;stroke-width:0.8;"/>
   </g>
   <g id="patch_5">
    <path d="M 44.66 303.64 
L 447.107767 303.64 
" style="fill:none;stroke:#000000;stroke-linecap:square;stroke-linejoin:miter;stroke-width:0.8;"/>
   </g>
   <g id="patch_6">
    <path d="M 44.66 14.76 
L 447.107767 14.76 
" style="fill:none;stroke:#000000;stroke-linecap:square;stroke-linejoin:miter;stroke-width:0.8;"/>
   </g>
   <g id="text_14">
    <!-- ScaledYOLOv4 -->
    <g transform="translate(87.639859 119.207574)scale(0.1 -0.1)">
     <defs>
      <path d="M 3122 3366 
L 3122 2828 
Q 2878 2963 2633 3030 
Q 2388 3097 2138 3097 
Q 1578 3097 1268 2742 
Q 959 2388 959 1747 
Q 959 1106 1268 751 
Q 1578 397 2138 397 
Q 2388 397 2633 464 
Q 2878 531 3122 666 
L 3122 134 
Q 2881 22 2623 -34 
Q 2366 -91 2075 -91 
Q 1284 -91 818 406 
Q 353 903 353 1747 
Q 353 2603 823 3093 
Q 1294 3584 2113 3584 
Q 2378 3584 2631 3529 
Q 2884 3475 3122 3366 
z
" id="DejaVuSans-63" transform="scale(0.015625)"/>
      <path d="M 2194 1759 
Q 1497 1759 1228 1600 
Q 959 1441 959 1056 
Q 959 750 1161 570 
Q 1363 391 1709 391 
Q 2188 391 2477 730 
Q 2766 1069 2766 1631 
L 2766 1759 
L 2194 1759 
z
M 3341 1997 
L 3341 0 
L 2766 0 
L 2766 531 
Q 2569 213 2275 61 
Q 1981 -91 1556 -91 
Q 1019 -91 701 211 
Q 384 513 384 1019 
Q 384 1609 779 1909 
Q 1175 2209 1959 2209 
L 2766 2209 
L 2766 2266 
Q 2766 2663 2505 2880 
Q 2244 3097 1772 3097 
Q 1472 3097 1187 3025 
Q 903 2953 641 2809 
L 641 3341 
Q 956 3463 1253 3523 
Q 1550 3584 1831 3584 
Q 2591 3584 2966 3190 
Q 3341 2797 3341 1997 
z
" id="DejaVuSans-61" transform="scale(0.015625)"/>
      <path d="M 603 4863 
L 1178 4863 
L 1178 0 
L 603 0 
L 603 4863 
z
" id="DejaVuSans-6c" transform="scale(0.015625)"/>
      <path d="M 3597 1894 
L 3597 1613 
L 953 1613 
Q 991 1019 1311 708 
Q 1631 397 2203 397 
Q 2534 397 2845 478 
Q 3156 559 3463 722 
L 3463 178 
Q 3153 47 2828 -22 
Q 2503 -91 2169 -91 
Q 1331 -91 842 396 
Q 353 884 353 1716 
Q 353 2575 817 3079 
Q 1281 3584 2069 3584 
Q 2775 3584 3186 3129 
Q 3597 2675 3597 1894 
z
M 3022 2063 
Q 3016 2534 2758 2815 
Q 2500 3097 2075 3097 
Q 1594 3097 1305 2825 
Q 1016 2553 972 2059 
L 3022 2063 
z
" id="DejaVuSans-65" transform="scale(0.015625)"/>
      <path d="M 2906 2969 
L 2906 4863 
L 3481 4863 
L 3481 0 
L 2906 0 
L 2906 525 
Q 2725 213 2448 61 
Q 2172 -91 1784 -91 
Q 1150 -91 751 415 
Q 353 922 353 1747 
Q 353 2572 751 3078 
Q 1150 3584 1784 3584 
Q 2172 3584 2448 3432 
Q 2725 3281 2906 2969 
z
M 947 1747 
Q 947 1113 1208 752 
Q 1469 391 1925 391 
Q 2381 391 2643 752 
Q 2906 1113 2906 1747 
Q 2906 2381 2643 2742 
Q 2381 3103 1925 3103 
Q 1469 3103 1208 2742 
Q 947 2381 947 1747 
z
" id="DejaVuSans-64" transform="scale(0.015625)"/>
      <path d="M -13 4666 
L 666 4666 
L 1959 2747 
L 3244 4666 
L 3922 4666 
L 2272 2222 
L 2272 0 
L 1638 0 
L 1638 2222 
L -13 4666 
z
" id="DejaVuSans-59" transform="scale(0.015625)"/>
      <path d="M 2522 4238 
Q 1834 4238 1429 3725 
Q 1025 3213 1025 2328 
Q 1025 1447 1429 934 
Q 1834 422 2522 422 
Q 3209 422 3611 934 
Q 4013 1447 4013 2328 
Q 4013 3213 3611 3725 
Q 3209 4238 2522 4238 
z
M 2522 4750 
Q 3503 4750 4090 4092 
Q 4678 3434 4678 2328 
Q 4678 1225 4090 567 
Q 3503 -91 2522 -91 
Q 1538 -91 948 565 
Q 359 1222 359 2328 
Q 359 3434 948 4092 
Q 1538 4750 2522 4750 
z
" id="DejaVuSans-4f" transform="scale(0.015625)"/>
      <path d="M 628 4666 
L 1259 4666 
L 1259 531 
L 3531 531 
L 3531 0 
L 628 0 
L 628 4666 
z
" id="DejaVuSans-4c" transform="scale(0.015625)"/>
      <path d="M 191 3500 
L 800 3500 
L 1894 563 
L 2988 3500 
L 3597 3500 
L 2284 0 
L 1503 0 
L 191 3500 
z
" id="DejaVuSans-76" transform="scale(0.015625)"/>
     </defs>
     <use xlink:href="#DejaVuSans-53"/>
     <use x="63.476562" xlink:href="#DejaVuSans-63"/>
     <use x="118.457031" xlink:href="#DejaVuSans-61"/>
     <use x="179.736328" xlink:href="#DejaVuSans-6c"/>
     <use x="207.519531" xlink:href="#DejaVuSans-65"/>
     <use x="269.042969" xlink:href="#DejaVuSans-64"/>
     <use x="332.519531" xlink:href="#DejaVuSans-59"/>
     <use x="388.103516" xlink:href="#DejaVuSans-4f"/>
     <use x="466.814453" xlink:href="#DejaVuSans-4c"/>
     <use x="518.902344" xlink:href="#DejaVuSans-4f"/>
     <use x="597.613281" xlink:href="#DejaVuSans-76"/>
     <use x="656.792969" xlink:href="#DejaVuSans-34"/>
    </g>
   </g>
   <g id="text_15">
    <!-- YOLOv4-P5 -->
    <g transform="translate(52.47452 75.229648)scale(0.1 -0.1)">
     <defs>
      <path d="M 313 2009 
L 1997 2009 
L 1997 1497 
L 313 1497 
L 313 2009 
z
" id="DejaVuSans-2d" transform="scale(0.015625)"/>
     </defs>
     <use xlink:href="#DejaVuSans-59"/>
     <use x="55.583984" xlink:href="#DejaVuSans-4f"/>
     <use x="134.294922" xlink:href="#DejaVuSans-4c"/>
     <use x="186.382812" xlink:href="#DejaVuSans-4f"/>
     <use x="265.09375" xlink:href="#DejaVuSans-76"/>
     <use x="324.273438" xlink:href="#DejaVuSans-34"/>
     <use x="387.896484" xlink:href="#DejaVuSans-2d"/>
     <use x="423.980469" xlink:href="#DejaVuSans-50"/>
     <use x="484.283203" xlink:href="#DejaVuSans-35"/>
    </g>
   </g>
   <g id="text_16">
    <!-- v5-M -->
    <g transform="translate(329.889971 259.387212)scale(0.1 -0.1)">
     <defs>
      <path d="M 628 4666 
L 1569 4666 
L 2759 1491 
L 3956 4666 
L 4897 4666 
L 4897 0 
L 4281 0 
L 4281 4097 
L 3078 897 
L 2444 897 
L 1241 4097 
L 1241 0 
L 628 0 
L 628 4666 
z
" id="DejaVuSans-4d" transform="scale(0.015625)"/>
     </defs>
     <use xlink:href="#DejaVuSans-76"/>
     <use x="59.179688" xlink:href="#DejaVuSans-35"/>
     <use x="122.802734" xlink:href="#DejaVuSans-2d"/>
     <use x="158.886719" xlink:href="#DejaVuSans-4d"/>
    </g>
   </g>
   <g id="text_17">
    <!-- v5-L -->
    <g transform="translate(228.301214 212.660666)scale(0.1 -0.1)">
     <use xlink:href="#DejaVuSans-76"/>
     <use x="59.179688" xlink:href="#DejaVuSans-35"/>
     <use x="122.802734" xlink:href="#DejaVuSans-2d"/>
     <use x="158.886719" xlink:href="#DejaVuSans-4c"/>
    </g>
   </g>
   <g id="text_18">
    <!-- NAS-SS -->
    <g transform="translate(267.373813 286.873416)scale(0.1 -0.1)">
     <defs>
      <path d="M 588 4666 
L 1931 4666 
L 3628 1466 
L 3628 4666 
L 4769 4666 
L 4769 0 
L 3425 0 
L 1728 3200 
L 1728 0 
L 588 0 
L 588 4666 
z
" id="DejaVuSans-Bold-4e" transform="scale(0.015625)"/>
      <path d="M 3419 850 
L 1538 850 
L 1241 0 
L 31 0 
L 1759 4666 
L 3194 4666 
L 4922 0 
L 3713 0 
L 3419 850 
z
M 1838 1716 
L 3116 1716 
L 2478 3572 
L 1838 1716 
z
" id="DejaVuSans-Bold-41" transform="scale(0.015625)"/>
      <path d="M 3834 4519 
L 3834 3531 
Q 3450 3703 3084 3790 
Q 2719 3878 2394 3878 
Q 1963 3878 1756 3759 
Q 1550 3641 1550 3391 
Q 1550 3203 1689 3098 
Q 1828 2994 2194 2919 
L 2706 2816 
Q 3484 2659 3812 2340 
Q 4141 2022 4141 1434 
Q 4141 663 3683 286 
Q 3225 -91 2284 -91 
Q 1841 -91 1394 -6 
Q 947 78 500 244 
L 500 1259 
Q 947 1022 1364 901 
Q 1781 781 2169 781 
Q 2563 781 2772 912 
Q 2981 1044 2981 1288 
Q 2981 1506 2839 1625 
Q 2697 1744 2272 1838 
L 1806 1941 
Q 1106 2091 782 2419 
Q 459 2747 459 3303 
Q 459 4000 909 4375 
Q 1359 4750 2203 4750 
Q 2588 4750 2994 4692 
Q 3400 4634 3834 4519 
z
" id="DejaVuSans-Bold-53" transform="scale(0.015625)"/>
      <path d="M 347 2297 
L 2309 2297 
L 2309 1388 
L 347 1388 
L 347 2297 
z
" id="DejaVuSans-Bold-2d" transform="scale(0.015625)"/>
     </defs>
     <use xlink:href="#DejaVuSans-Bold-4e"/>
     <use x="83.691406" xlink:href="#DejaVuSans-Bold-41"/>
     <use x="161.083984" xlink:href="#DejaVuSans-Bold-53"/>
     <use x="233.105469" xlink:href="#DejaVuSans-Bold-2d"/>
     <use x="274.609375" xlink:href="#DejaVuSans-Bold-53"/>
     <use x="342.130859" xlink:href="#DejaVuSans-Bold-53"/>
    </g>
   </g>
   <g id="text_19">
    <!-- NAS-S -->
    <g transform="translate(200.950395 157.688259)scale(0.1 -0.1)">
     <use xlink:href="#DejaVuSans-Bold-4e"/>
     <use x="83.691406" xlink:href="#DejaVuSans-Bold-41"/>
     <use x="161.083984" xlink:href="#DejaVuSans-Bold-53"/>
     <use x="233.105469" xlink:href="#DejaVuSans-Bold-2d"/>
     <use x="274.609375" xlink:href="#DejaVuSans-Bold-53"/>
    </g>
   </g>
   <g id="text_20">
    <!-- NAS-M -->
    <g transform="translate(181.414096 116.458953)scale(0.1 -0.1)">
     <defs>
      <path d="M 588 4666 
L 2119 4666 
L 3181 2169 
L 4250 4666 
L 5778 4666 
L 5778 0 
L 4641 0 
L 4641 3413 
L 3566 897 
L 2803 897 
L 1728 3413 
L 1728 0 
L 588 0 
L 588 4666 
z
" id="DejaVuSans-Bold-4d" transform="scale(0.015625)"/>
     </defs>
     <use xlink:href="#DejaVuSans-Bold-4e"/>
     <use x="83.691406" xlink:href="#DejaVuSans-Bold-41"/>
     <use x="161.083984" xlink:href="#DejaVuSans-Bold-53"/>
     <use x="233.105469" xlink:href="#DejaVuSans-Bold-2d"/>
     <use x="274.609375" xlink:href="#DejaVuSans-Bold-4d"/>
    </g>
   </g>
   <g id="text_21">
    <!-- NAS -->
    <g transform="translate(169.692316 72.481028)scale(0.1 -0.1)">
     <use xlink:href="#DejaVuSans-Bold-4e"/>
     <use x="83.691406" xlink:href="#DejaVuSans-Bold-41"/>
     <use x="161.083984" xlink:href="#DejaVuSans-Bold-53"/>
    </g>
   </g>
   <g id="text_22">
    <!-- NAS-L -->
    <g transform="translate(122.805197 61.486546)scale(0.1 -0.1)">
     <defs>
      <path d="M 588 4666 
L 1791 4666 
L 1791 909 
L 3903 909 
L 3903 0 
L 588 0 
L 588 4666 
z
" id="DejaVuSans-Bold-4c" transform="scale(0.015625)"/>
     </defs>
     <use xlink:href="#DejaVuSans-Bold-4e"/>
     <use x="83.691406" xlink:href="#DejaVuSans-Bold-41"/>
     <use x="161.083984" xlink:href="#DejaVuSans-Bold-53"/>
     <use x="233.105469" xlink:href="#DejaVuSans-Bold-2d"/>
     <use x="274.609375" xlink:href="#DejaVuSans-Bold-4c"/>
    </g>
   </g>
   <g id="text_23">
    <!-- v5-NAS-M -->
    <g transform="translate(388.498869 253.889971)scale(0.1 -0.1)">
     <defs>
      <path d="M 97 3500 
L 1216 3500 
L 2088 1081 
L 2956 3500 
L 4078 3500 
L 2700 0 
L 1472 0 
L 97 3500 
z
" id="DejaVuSans-Bold-76" transform="scale(0.015625)"/>
      <path d="M 678 4666 
L 3669 4666 
L 3669 3781 
L 1638 3781 
L 1638 3059 
Q 1775 3097 1914 3117 
Q 2053 3138 2203 3138 
Q 3056 3138 3531 2711 
Q 4006 2284 4006 1522 
Q 4006 766 3489 337 
Q 2972 -91 2053 -91 
Q 1656 -91 1267 -14 
Q 878 63 494 219 
L 494 1166 
Q 875 947 1217 837 
Q 1559 728 1863 728 
Q 2300 728 2551 942 
Q 2803 1156 2803 1522 
Q 2803 1891 2551 2103 
Q 2300 2316 1863 2316 
Q 1603 2316 1309 2248 
Q 1016 2181 678 2041 
L 678 4666 
z
" id="DejaVuSans-Bold-35" transform="scale(0.015625)"/>
     </defs>
     <use xlink:href="#DejaVuSans-Bold-76"/>
     <use x="65.185547" xlink:href="#DejaVuSans-Bold-35"/>
     <use x="134.765625" xlink:href="#DejaVuSans-Bold-2d"/>
     <use x="176.269531" xlink:href="#DejaVuSans-Bold-4e"/>
     <use x="259.960938" xlink:href="#DejaVuSans-Bold-41"/>
     <use x="337.353516" xlink:href="#DejaVuSans-Bold-53"/>
     <use x="409.375" xlink:href="#DejaVuSans-Bold-2d"/>
     <use x="450.878906" xlink:href="#DejaVuSans-Bold-4d"/>
    </g>
   </g>
   <g id="text_24">
    <!-- v5-NAS-L -->
    <g transform="translate(275.188333 201.666185)scale(0.1 -0.1)">
     <use xlink:href="#DejaVuSans-Bold-76"/>
     <use x="65.185547" xlink:href="#DejaVuSans-Bold-35"/>
     <use x="134.765625" xlink:href="#DejaVuSans-Bold-2d"/>
     <use x="176.269531" xlink:href="#DejaVuSans-Bold-4e"/>
     <use x="259.960938" xlink:href="#DejaVuSans-Bold-41"/>
     <use x="337.353516" xlink:href="#DejaVuSans-Bold-53"/>
     <use x="409.375" xlink:href="#DejaVuSans-Bold-2d"/>
     <use x="450.878906" xlink:href="#DejaVuSans-Bold-4c"/>
    </g>
   </g>
   <g id="legend_1">
    <g id="patch_7">
     <path d="M 348.342142 81.4725 
L 440.107767 81.4725 
Q 442.107767 81.4725 442.107767 79.4725 
L 442.107767 21.76 
Q 442.107767 19.76 440.107767 19.76 
L 348.342142 19.76 
Q 346.342142 19.76 346.342142 21.76 
L 346.342142 79.4725 
Q 346.342142 81.4725 348.342142 81.4725 
z
" style="fill:#ffffff;opacity:0.8;stroke:#cccccc;stroke-linejoin:miter;"/>
    </g>
    <g id="line2d_16">
     <path d="M 350.342142 27.858438 
L 370.342142 27.858438 
" style="fill:none;stroke:#1f77b4;stroke-linecap:square;stroke-width:1.5;"/>
    </g>
    <g id="line2d_17">
     <g>
      <use style="fill:#1f77b4;stroke:#1f77b4;" x="360.342142" xlink:href="#m0d1f8cb6c5" y="27.858438"/>
     </g>
    </g>
    <g id="text_25">
     <!-- ScaledYOLO -->
     <g transform="translate(378.342142 31.358438)scale(0.1 -0.1)">
      <use xlink:href="#DejaVuSans-53"/>
      <use x="63.476562" xlink:href="#DejaVuSans-63"/>
      <use x="118.457031" xlink:href="#DejaVuSans-61"/>
      <use x="179.736328" xlink:href="#DejaVuSans-6c"/>
      <use x="207.519531" xlink:href="#DejaVuSans-65"/>
      <use x="269.042969" xlink:href="#DejaVuSans-64"/>
      <use x="332.519531" xlink:href="#DejaVuSans-59"/>
      <use x="388.103516" xlink:href="#DejaVuSans-4f"/>
      <use x="466.814453" xlink:href="#DejaVuSans-4c"/>
      <use x="518.902344" xlink:href="#DejaVuSans-4f"/>
     </g>
    </g>
    <g id="line2d_18">
     <path d="M 350.342142 42.536563 
L 370.342142 42.536563 
" style="fill:none;stroke:#ff7f0e;stroke-linecap:square;stroke-width:1.5;"/>
    </g>
    <g id="line2d_19">
     <g>
      <use style="fill:#ff7f0e;stroke:#ff7f0e;" x="360.342142" xlink:href="#m6334b3f965" y="42.536563"/>
     </g>
    </g>
    <g id="text_26">
     <!-- YOLOv5 -->
     <g transform="translate(378.342142 46.036563)scale(0.1 -0.1)">
      <use xlink:href="#DejaVuSans-59"/>
      <use x="55.583984" xlink:href="#DejaVuSans-4f"/>
      <use x="134.294922" xlink:href="#DejaVuSans-4c"/>
      <use x="186.382812" xlink:href="#DejaVuSans-4f"/>
      <use x="265.09375" xlink:href="#DejaVuSans-76"/>
      <use x="324.273438" xlink:href="#DejaVuSans-35"/>
     </g>
    </g>
    <g id="line2d_20">
     <path d="M 350.342142 57.214688 
L 370.342142 57.214688 
" style="fill:none;stroke:#2ca02c;stroke-linecap:square;stroke-width:1.5;"/>
    </g>
    <g id="line2d_21">
     <g>
      <use style="fill:#2ca02c;stroke:#2ca02c;" x="360.342142" xlink:href="#m6da2af3728" y="57.214688"/>
     </g>
    </g>
    <g id="text_27">
     <!-- ScaledNAS -->
     <g transform="translate(378.342142 60.714688)scale(0.1 -0.1)">
      <defs>
       <path d="M 628 4666 
L 1478 4666 
L 3547 763 
L 3547 4666 
L 4159 4666 
L 4159 0 
L 3309 0 
L 1241 3903 
L 1241 0 
L 628 0 
L 628 4666 
z
" id="DejaVuSans-4e" transform="scale(0.015625)"/>
      </defs>
      <use xlink:href="#DejaVuSans-53"/>
      <use x="63.476562" xlink:href="#DejaVuSans-63"/>
      <use x="118.457031" xlink:href="#DejaVuSans-61"/>
      <use x="179.736328" xlink:href="#DejaVuSans-6c"/>
      <use x="207.519531" xlink:href="#DejaVuSans-65"/>
      <use x="269.042969" xlink:href="#DejaVuSans-64"/>
      <use x="332.519531" xlink:href="#DejaVuSans-4e"/>
      <use x="407.324219" xlink:href="#DejaVuSans-41"/>
      <use x="475.732422" xlink:href="#DejaVuSans-53"/>
     </g>
    </g>
    <g id="line2d_22">
     <path d="M 350.342142 71.892813 
L 370.342142 71.892813 
" style="fill:none;stroke:#d62728;stroke-linecap:square;stroke-width:1.5;"/>
    </g>
    <g id="line2d_23">
     <g>
      <use style="fill:#d62728;stroke:#d62728;" x="360.342142" xlink:href="#m7c3304153c" y="71.892813"/>
     </g>
    </g>
    <g id="text_28">
     <!-- v5NAS -->
     <g transform="translate(378.342142 75.392813)scale(0.1 -0.1)">
      <use xlink:href="#DejaVuSans-76"/>
      <use x="59.179688" xlink:href="#DejaVuSans-35"/>
      <use x="122.802734" xlink:href="#DejaVuSans-4e"/>
      <use x="197.607422" xlink:href="#DejaVuSans-41"/>
      <use x="266.015625" xlink:href="#DejaVuSans-53"/>
     </g>
    </g>
   </g>
  </g>
 </g>
 <defs>
  <clipPath id="p128761d462">
   <rect height="288.88" width="402.447767" x="44.66" y="14.76"/>
  </clipPath>
 </defs>
</svg>
